<svg width="41" height="41" viewBox="0 0 41 41" fill="none" xmlns="http://www.w3.org/2000/svg">
<rect width="41" height="41" rx="9" fill="#48A7FD"/>
<g clip-path="url(#clip0_557_6198)">
<path fill-rule="evenodd" clip-rule="evenodd" d="M28.5068 25.9298C28.7345 25.9298 28.953 25.8393 29.114 25.6782C29.2751 25.5172 29.3655 25.2987 29.3655 25.071V13.048C29.3655 12.8202 29.2751 12.6018 29.114 12.4407C28.953 12.2797 28.7345 12.1892 28.5068 12.1892H16.4838C16.256 12.1892 16.0376 12.2797 15.8765 12.4407C15.7155 12.6018 15.625 12.8202 15.625 13.048V25.071C15.625 25.2987 15.7155 25.5172 15.8765 25.6782C16.0376 25.8393 16.256 25.9298 16.4838 25.9298H28.5068ZM17.7084 24.2122C17.4911 24.2122 17.3426 24.0482 17.3426 23.8721C17.3426 23.8034 17.3649 23.733 17.4138 23.6694L20.0297 20.887C20.1002 20.818 20.1945 20.7788 20.2931 20.7773C20.3917 20.7759 20.4871 20.8124 20.5596 20.8792L21.7593 22.1511L24.0119 18.8663C24.0485 18.8184 24.0959 18.7799 24.1502 18.7538C24.2046 18.7277 24.2643 18.7148 24.3245 18.7161C24.3848 18.7175 24.4439 18.733 24.497 18.7615C24.5501 18.79 24.5957 18.8306 24.6302 18.88L27.6033 23.6969C27.7356 23.9305 27.5587 24.2122 27.2796 24.2122H17.7084ZM21.6365 16.4831C21.6365 16.9387 21.4555 17.3755 21.1334 17.6976C20.8113 18.0197 20.3744 18.2007 19.9189 18.2007C19.4634 18.2007 19.0265 18.0197 18.7044 17.6976C18.3823 17.3755 18.2014 16.9387 18.2014 16.4831C18.2014 16.0276 18.3823 15.5907 18.7044 15.2686C19.0265 14.9465 19.4634 14.7656 19.9189 14.7656C20.3744 14.7656 20.8113 14.9465 21.1334 15.2686C21.4555 15.5907 21.6365 16.0276 21.6365 16.4831Z" fill="white"/>
<path d="M12.1895 16.0538C12.1895 15.7122 12.3252 15.3845 12.5668 15.1429C12.8083 14.9013 13.136 14.7656 13.4776 14.7656H13.907V27.6474H26.7888V28.0768C26.7888 28.4184 26.6531 28.7461 26.4115 28.9877C26.1699 29.2292 25.8422 29.365 25.5006 29.365H13.4776C13.136 29.365 12.8083 29.2292 12.5668 28.9877C12.3252 28.7461 12.1895 28.4184 12.1895 28.0768V16.0538Z" fill="white"/>
</g>
<defs>
<clipPath id="clip0_557_6198">
<rect width="17.1757" height="17.1757" fill="white" transform="translate(12.1895 12.1892)"/>
</clipPath>
</defs>
</svg>
