<svg width="64" height="64" viewBox="0 0 64 64" fill="none" xmlns="http://www.w3.org/2000/svg">
<g clip-path="url(#clip0_2090_218)">
<path d="M18.3691 48.961C18.3691 38.8915 26.5614 30.6992 36.6309 30.6992V28.336H41.4648C41.7921 28.336 42.1116 28.2363 42.3809 28.0503C42.6501 27.8642 42.8563 27.6006 42.9721 27.2945C43.0878 26.9884 43.1076 26.6543 43.0288 26.3366C42.95 26.019 42.7763 25.7329 42.5309 25.5164L24.2692 9.40307C23.9748 9.14333 23.5957 9 23.2031 9C22.8105 9 22.4314 9.14333 22.137 9.40307L3.87525 25.5164C3.6299 25.7329 3.45629 26.019 3.37752 26.3367C3.29875 26.6543 3.31855 26.9884 3.43429 27.2945C3.55004 27.6006 3.75624 27.8642 4.02546 28.0502C4.29468 28.2363 4.61416 28.3359 4.94142 28.336H9.7754V62.3887C9.7754 63.2786 10.4968 64 11.3867 64H26.2841C21.5067 60.7029 18.3691 55.1919 18.3691 48.961ZM37.8714 50.1535V55.1992C38.8285 54.7342 39.3954 53.8091 39.5425 52.9337C39.6232 52.4527 39.738 50.8414 37.8714 50.1535Z" fill="url(#paint0_linear_2090_218)"/>
<path d="M34.1831 44.1084C34.0588 44.7682 34.2227 45.3862 34.6009 45.6826C34.7739 45.8183 34.971 45.9505 35.1858 46.0793V42.6069C34.5972 42.9564 34.2829 43.5784 34.1831 44.1084Z" fill="url(#paint1_linear_2090_218)"/>
<path d="M36.6309 33.9219C28.3383 33.9219 21.5918 40.6684 21.5918 48.9609C21.5918 57.2535 28.3383 64 36.6309 64C44.9235 64 51.6699 57.2535 51.6699 48.9609C51.6699 40.6684 44.9235 33.9219 36.6309 33.9219ZM42.1909 53.379C41.9774 54.6495 41.3382 55.8284 40.3912 56.6984C39.6688 57.3622 38.8132 57.8134 37.8714 58.0337V59.166C37.8714 59.9075 37.2701 60.5088 36.5286 60.5088C35.7871 60.5088 35.1858 59.9075 35.1858 59.166V58.1544C33.9789 58.0631 32.9997 57.7581 31.5977 56.841C30.9771 56.435 30.8031 55.6028 31.2091 54.9823C31.615 54.3618 32.4472 54.1875 33.0679 54.5936C33.9176 55.1494 34.4455 55.373 35.1859 55.4574V49.0974C34.2298 48.6636 33.5212 48.2485 32.9437 47.7956C31.7678 46.8734 31.2315 45.2698 31.5441 43.6109C31.8855 41.7992 33.1453 40.3581 34.8321 39.85C34.9492 39.8149 35.0672 39.7828 35.1859 39.7536V38.7559C35.1859 38.0143 35.7872 37.4131 36.5287 37.4131C37.2702 37.4131 37.8715 38.0143 37.8715 38.7559V39.6288C39.555 39.9051 40.7052 40.8049 40.9827 41.3468C41.3208 42.0069 41.06 42.816 40.3999 43.154C39.8369 43.4425 39.1654 43.295 38.7703 42.8358C38.6845 42.7673 38.3746 42.5404 37.8715 42.3852V47.2962C38.1559 47.4025 38.4404 47.5049 38.7194 47.6036C41.2665 48.504 42.6293 50.7709 42.1909 53.379Z" fill="url(#paint2_linear_2090_218)"/>
</g>
<rect x="29" y="1" width="20" height="20" rx="10" fill="#48A7FD" stroke="white" stroke-width="2"/>
<path d="M35.7302 11.407C35.3295 11.0149 35.3295 10.3699 35.7302 9.97773L35.8472 9.86317C36.2359 9.4827 36.8575 9.4827 37.2462 9.86317L39.1032 11.6808C39.5039 12.073 39.5039 12.7179 39.1032 13.1101L38.9862 13.2247C38.5975 13.6052 37.9759 13.6052 37.5872 13.2247L35.7302 11.407Z" fill="white"/>
<path d="M40.7538 8.68377C41.1426 8.30372 41.7638 8.30391 42.1524 8.68421L42.2698 8.7992C42.6705 9.19138 42.6705 9.83632 42.2698 10.2285L39.1173 13.3141C38.7281 13.6951 38.1056 13.6945 37.717 13.3128L37.5978 13.1957C37.1982 12.8031 37.199 12.1589 37.5996 11.7673L40.7538 8.68377Z" fill="white"/>
<defs>
<linearGradient id="paint0_linear_2090_218" x1="9.98889" y1="7.35714" x2="49.5276" y2="52.7108" gradientUnits="userSpaceOnUse">
<stop stop-color="#1D1D1D"/>
<stop offset="1" stop-color="#1D1D1D"/>
</linearGradient>
<linearGradient id="paint1_linear_2090_218" x1="34.317" y1="42.5032" x2="36.2756" y2="43.4377" gradientUnits="userSpaceOnUse">
<stop stop-color="#1D1D1D"/>
<stop offset="1" stop-color="#1D1D1D"/>
</linearGradient>
<linearGradient id="paint2_linear_2090_218" x1="26.6309" y1="33.0234" x2="46.3184" y2="64.2734" gradientUnits="userSpaceOnUse">
<stop stop-color="#1D1D1D"/>
<stop offset="1" stop-color="#1D1D1D"/>
</linearGradient>
<clipPath id="clip0_2090_218">
<rect width="55" height="55" fill="white" transform="translate(0 9)"/>
</clipPath>
</defs>
</svg>
