<svg width="64" height="64" viewBox="0 0 64 64" fill="none" xmlns="http://www.w3.org/2000/svg">
<path d="M46.4062 3.4375H8.59375C7.22623 3.4375 5.91472 3.98075 4.94773 4.94773C3.98075 5.91472 3.4375 7.22623 3.4375 8.59375V17.1875H51.5625V8.59375C51.5625 7.22623 51.0193 5.91472 50.0523 4.94773C49.0853 3.98075 47.7738 3.4375 46.4062 3.4375ZM12.0312 12.0312H10.3125C9.85666 12.0312 9.41949 11.8502 9.09716 11.5278C8.77483 11.2055 8.59375 10.7683 8.59375 10.3125C8.59375 9.85666 8.77483 9.41949 9.09716 9.09716C9.41949 8.77483 9.85666 8.59375 10.3125 8.59375H12.0312C12.4871 8.59375 12.9243 8.77483 13.2466 9.09716C13.5689 9.41949 13.75 9.85666 13.75 10.3125C13.75 10.7683 13.5689 11.2055 13.2466 11.5278C12.9243 11.8502 12.4871 12.0312 12.0312 12.0312ZM20.625 12.0312H18.9062C18.4504 12.0312 18.0132 11.8502 17.6909 11.5278C17.3686 11.2055 17.1875 10.7683 17.1875 10.3125C17.1875 9.85666 17.3686 9.41949 17.6909 9.09716C18.0132 8.77483 18.4504 8.59375 18.9062 8.59375H20.625C21.0808 8.59375 21.518 8.77483 21.8403 9.09716C22.1627 9.41949 22.3438 9.85666 22.3438 10.3125C22.3438 10.7683 22.1627 11.2055 21.8403 11.5278C21.518 11.8502 21.0808 12.0312 20.625 12.0312ZM3.4375 46.4062C3.4375 47.7738 3.98075 49.0853 4.94773 50.0523C5.91472 51.0193 7.22623 51.5625 8.59375 51.5625H46.4062C47.7738 51.5625 49.0853 51.0193 50.0523 50.0523C51.0193 49.0853 51.5625 47.7738 51.5625 46.4062V20.625H3.4375V46.4062ZM10.9141 39.9472L22.9453 29.6347C23.2491 29.3743 23.6342 29.2281 24.0342 29.2212C24.4342 29.2143 24.8241 29.3471 25.1367 29.5969L32.7972 35.7259L37.9087 32.6562H37.8125C37.3567 32.6562 36.9195 32.4752 36.5972 32.1528C36.2748 31.8305 36.0938 31.3933 36.0938 30.9375C36.0938 30.4817 36.2748 30.0445 36.5972 29.7222C36.9195 29.3998 37.3567 29.2188 37.8125 29.2188H42.9688C43.2409 29.219 43.5092 29.2838 43.7514 29.408C43.9937 29.5321 44.2029 29.712 44.362 29.9329C44.5211 30.1537 44.6255 30.4092 44.6665 30.6783C44.7076 30.9474 44.6841 31.2224 44.5981 31.4806L42.8794 36.6369C42.7262 37.043 42.4243 37.3757 42.0349 37.5675C41.6454 37.7592 41.1977 37.7958 40.7823 37.6696C40.367 37.5435 40.0152 37.2641 39.7982 36.8882C39.5812 36.5123 39.5152 36.0679 39.6138 35.6452L33.5466 39.2855C33.2457 39.4664 32.8967 39.5509 32.5464 39.5275C32.1961 39.5042 31.8614 39.3741 31.5872 39.1548L24.1003 33.1719L13.1484 42.5563C12.9787 42.7131 12.779 42.8341 12.5613 42.912C12.3437 42.9899 12.1126 43.0231 11.8818 43.0097C11.651 42.9962 11.4254 42.9363 11.2183 42.8336C11.0112 42.7308 10.827 42.5874 10.6766 42.4118C10.5263 42.2362 10.4129 42.0321 10.3432 41.8117C10.2736 41.5913 10.2491 41.3591 10.2712 41.129C10.2934 40.8989 10.3618 40.6757 10.4722 40.4726C10.5827 40.2695 10.7329 40.0908 10.9141 39.9472Z" fill="url(#paint0_linear_2090_219)"/>
<rect x="42" y="42" width="20" height="20" rx="10" fill="#48A7FD" stroke="white" stroke-width="2"/>
<path d="M48.7302 52.407C48.3295 52.0149 48.3295 51.3699 48.7302 50.9777L48.8472 50.8632C49.2359 50.4827 49.8575 50.4827 50.2462 50.8632L52.1032 52.6808C52.5039 53.073 52.5039 53.7179 52.1032 54.1101L51.9862 54.2247C51.5975 54.6052 50.9759 54.6052 50.5872 54.2247L48.7302 52.407Z" fill="white"/>
<path d="M53.7538 49.6838C54.1426 49.3037 54.7638 49.3039 55.1524 49.6842L55.2698 49.7992C55.6705 50.1914 55.6705 50.8363 55.2698 51.2285L52.1173 54.3141C51.7281 54.6951 51.1056 54.6945 50.717 54.3128L50.5978 54.1957C50.1982 53.8031 50.199 53.1589 50.5996 52.7673L53.7538 49.6838Z" fill="white"/>
<defs>
<linearGradient id="paint0_linear_2090_219" x1="11.5" y1="2" x2="43" y2="52" gradientUnits="userSpaceOnUse">
<stop stop-color="#1D1D1D"/>
<stop offset="1" stop-color="#1D1D1D"/>
</linearGradient>
</defs>
</svg>
