<svg width="64" height="64" viewBox="0 0 64 64" fill="none" xmlns="http://www.w3.org/2000/svg">
<path d="M8.55469 31.6668L9.02681 31.1947C9.23918 30.9807 11.2187 29.1113 15 29.1113C18.7813 29.1113 20.7608 30.9807 20.9732 31.1948L21.4453 31.6668V35.5566H27.8906V42.002H2.00195V35.5566H8.55469V31.6668ZM11.7773 35.5566H18.2227V33.1413C17.653 32.7998 16.5846 32.334 15 32.334C13.4107 32.334 12.3407 32.8029 11.7773 33.138V35.5566Z" fill="url(#paint0_linear_2090_217)"/>
<path d="M37.5566 35.5566V51.7773H40.7793V55H31.1113V51.7773H34.334V25.8887H19.1648L14.3308 21.0547L19.1648 16.2207H34.334V3.22266H31.1113V0H40.7793V3.22266H37.5566V6.44531H49.6106L54.4445 11.3867L49.6106 16.2207H37.5566V25.8887H52.166L57 30.7227L52.166 35.5566H37.5566Z" fill="url(#paint1_linear_2090_217)"/>
<path d="M13.3887 48.4473H16.6113V45.2246H27.8906V55H2.00195V45.2246H13.3887V48.4473Z" fill="url(#paint2_linear_2090_217)"/>
<rect x="1" y="2" width="20" height="20" rx="10" fill="#48A7FD" stroke="white" stroke-width="2"/>
<path d="M7.73015 12.407C7.32946 12.0149 7.32946 11.3699 7.73015 10.9777L7.84721 10.8632C8.23592 10.4827 8.85745 10.4827 9.24617 10.8632L11.1032 12.6808C11.5039 13.073 11.5039 13.7179 11.1032 14.1101L10.9862 14.2247C10.5975 14.6052 9.97595 14.6052 9.58723 14.2247L7.73015 12.407Z" fill="white"/>
<path d="M12.7538 9.68377C13.1426 9.30372 13.7638 9.30391 14.1524 9.68421L14.2698 9.7992C14.6705 10.1914 14.6705 10.8363 14.2698 11.2285L11.1173 14.3141C10.7281 14.6951 10.1056 14.6945 9.71704 14.3128L9.59782 14.1957C9.19818 13.8031 9.19897 13.1589 9.59957 12.7673L12.7538 9.68377Z" fill="white"/>
<defs>
<linearGradient id="paint0_linear_2090_217" x1="23.5534" y1="28.7263" x2="18.2105" y2="45.7587" gradientUnits="userSpaceOnUse">
<stop stop-color="#1D1D1D"/>
<stop offset="1" stop-color="#1D1D1D"/>
</linearGradient>
<linearGradient id="paint1_linear_2090_217" x1="49.8515" y1="-1.64286" x2="10.7896" y2="46.4593" gradientUnits="userSpaceOnUse">
<stop stop-color="#1D1D1D"/>
<stop offset="1" stop-color="#1D1D1D"/>
</linearGradient>
<linearGradient id="paint2_linear_2090_217" x1="23.5534" y1="44.9326" x2="20.3593" y2="58.36" gradientUnits="userSpaceOnUse">
<stop stop-color="#1D1D1D"/>
<stop offset="1" stop-color="#1D1D1D"/>
</linearGradient>
</defs>
</svg>
