<svg width="6" height="8" viewBox="0 0 6 8" fill="none" xmlns="http://www.w3.org/2000/svg">
<path d="M3.87805 6.31464V8H1.96341V6.31464H3.87805ZM0 2.70315C0.00813007 2.30917 0.0813008 1.94802 0.219512 1.6197C0.365854 1.29138 0.565041 1.00684 0.817073 0.766074C1.07724 0.525308 1.38618 0.339261 1.7439 0.207934C2.10976 0.0693114 2.51626 0 2.96341 0C3.54065 0 4.02033 0.0729593 4.40244 0.218878C4.79268 0.357501 5.10569 0.532603 5.34146 0.744186C5.57724 0.955768 5.7439 1.18559 5.84146 1.43365C5.94715 1.67442 6 1.90059 6 2.11217C6 2.46238 5.94715 2.75057 5.84146 2.97674C5.7439 3.20292 5.61789 3.39626 5.46341 3.55677C5.31707 3.71728 5.15041 3.8559 4.96341 3.97264C4.78455 4.08208 4.61382 4.19517 4.45122 4.3119C4.28862 4.42134 4.14228 4.54902 4.0122 4.69494C3.89024 4.84086 3.81301 5.02326 3.78049 5.24213V5.658H2.13415V5.16553C2.15854 4.8518 2.22358 4.58915 2.32927 4.37756C2.44309 4.16598 2.57317 3.98723 2.71951 3.84131C2.86585 3.6881 3.02033 3.55677 3.18293 3.44733C3.34553 3.33789 3.49593 3.22845 3.63415 3.11901C3.77236 3.00958 3.88211 2.88919 3.96341 2.75787C4.05285 2.62654 4.0935 2.46238 4.08537 2.26539C4.08537 1.92978 3.99187 1.68171 3.80488 1.5212C3.62602 1.36069 3.37398 1.28044 3.04878 1.28044C2.82927 1.28044 2.63821 1.32057 2.47561 1.40082C2.32114 1.47378 2.19106 1.57592 2.08537 1.70725C1.9878 1.83128 1.91463 1.98085 1.86585 2.15595C1.81707 2.32376 1.79268 2.50616 1.79268 2.70315H0Z" fill="white"/>
</svg>
