<svg width="11" height="9" viewBox="0 0 11 9" fill="none" xmlns="http://www.w3.org/2000/svg">
<path d="M0.643383 4.70746C0.281753 4.32258 0.281753 3.72285 0.643382 3.33796L1.39643 2.5365C1.79137 2.11616 2.45905 2.11616 2.85399 2.5365L5.99789 5.88255C6.35952 6.26743 6.35952 6.86717 5.99789 7.25205L5.24484 8.05352C4.8499 8.47385 4.18223 8.47385 3.78729 8.05352L0.643383 4.70746Z" fill="#A4FFB9"/>
<path d="M8.1383 0.774706C8.53333 0.354795 9.20066 0.355002 9.59543 0.775157L10.3489 1.57711C10.7106 1.96199 10.7106 2.56172 10.3489 2.9466L5.42457 8.18759C5.02914 8.60845 4.36043 8.60784 3.96577 8.18625L3.2106 7.37959C2.85 6.99439 2.85073 6.39529 3.21228 6.01097L8.1383 0.774706Z" fill="#A4FFB9"/>
</svg>
