<svg width="16" height="17" viewBox="0 0 16 17" fill="none" xmlns="http://www.w3.org/2000/svg">
<path d="M12.3605 3.35724L8.69385 1.98391C8.31385 1.84391 7.69385 1.84391 7.31385 1.98391L3.64719 3.35724C2.94052 3.62391 2.36719 4.45057 2.36719 5.20391V10.6039C2.36719 11.1439 2.72052 11.8572 3.15385 12.1772L6.82052 14.9172C7.46719 15.4039 8.52719 15.4039 9.17385 14.9172L12.8405 12.1772C13.2739 11.8506 13.6272 11.1439 13.6272 10.6039V5.20391C13.6339 4.45057 13.0605 3.62391 12.3605 3.35724ZM10.3205 7.09057L7.45385 9.95724C7.35385 10.0572 7.22719 10.1039 7.10052 10.1039C6.97385 10.1039 6.84719 10.0572 6.74719 9.95724L5.68052 8.87724C5.48719 8.68391 5.48719 8.36391 5.68052 8.17057C5.87385 7.97724 6.19385 7.97724 6.38719 8.17057L7.10719 8.89057L9.62052 6.37724C9.81385 6.18391 10.1339 6.18391 10.3272 6.37724C10.5205 6.57057 10.5205 6.89724 10.3205 7.09057Z" fill="white"/>
</svg>
