<svg width="31" height="31" viewBox="0 0 31 31" fill="none" xmlns="http://www.w3.org/2000/svg">
<g clip-path="url(#clip0_2330_231)">
<path d="M12.7754 31V28.2148C10.7718 28.2148 9.14258 26.5856 9.14258 24.582C9.14258 22.5785 10.7718 20.9492 12.7754 20.9492V18.2246H7.69866L8.1306 17.0113C8.1998 16.8178 8.23491 16.6137 8.23438 16.4082C8.23438 15.4069 7.41929 14.5918 6.41797 14.5918C5.41664 14.5918 4.60156 15.4069 4.60156 16.4082C4.60156 16.6158 4.63613 16.8188 4.70534 17.0113L5.13728 18.2246H0C0.45065 25.0114 5.98857 30.5493 12.7754 31Z" fill="url(#paint0_linear_2330_231)"/>
<path d="M6.41797 12.7753C8.42153 12.7753 10.0508 14.4045 10.0508 16.4081H12.7754V11.3314L13.9887 11.7633C15.1071 12.1615 16.4073 11.2586 16.4082 10.0507C16.4073 8.84179 15.108 7.93183 13.9887 8.33804L12.7754 8.76998V3.73926C5.98857 4.18991 0.45065 9.62127 0 16.4081H2.78516C2.78516 14.4045 4.41441 12.7753 6.41797 12.7753ZM27.2606 18.2245H24.582C24.582 20.228 22.9528 21.8573 20.9492 21.8573C18.9457 21.8573 17.3164 20.228 17.3164 18.2245H14.5918V23.3012L13.3785 22.8693C12.2557 22.4657 10.9581 23.373 10.959 24.5819C10.9581 25.7908 12.2566 26.6981 13.3785 26.2945L14.5918 25.8626V30.9999C21.3786 30.5492 26.81 25.0113 27.2606 18.2245Z" fill="url(#paint1_linear_2330_231)"/>
<path d="M27.3066 7.32617V3.69336H23.6738C23.6738 1.6898 22.0446 0 20.041 0C18.0375 0 16.4082 1.6898 16.4082 3.69336H14.5918V6.41797C16.5954 6.41797 18.2246 8.04722 18.2246 10.0508C18.2246 12.0543 16.5954 13.6836 14.5918 13.6836V16.4082H19.6685L19.2366 17.6215C19.1674 17.815 19.1323 18.0191 19.1328 18.2246C19.1328 19.2259 19.9479 20.041 20.9492 20.041C21.9505 20.041 22.7656 19.2259 22.7656 18.2246C22.7656 18.0171 22.7311 17.814 22.6618 17.6215L22.2299 16.4082H27.3066V14.5918C29.3102 14.5918 31 12.9625 31 10.959C31 8.95543 29.3102 7.32617 27.3066 7.32617Z" fill="url(#paint2_linear_2330_231)"/>
</g>
<defs>
<linearGradient id="paint0_linear_2330_231" x1="-4.41652e-09" y1="15.7511" x2="13.2978" y2="16.3127" gradientUnits="userSpaceOnUse">
<stop stop-color="white"/>
<stop offset="1" stop-color="#CCCCCC"/>
</linearGradient>
<linearGradient id="paint1_linear_2330_231" x1="-9.42414e-09" y1="5.66528" x2="28.3425" y2="7.20264" gradientUnits="userSpaceOnUse">
<stop stop-color="white"/>
<stop offset="1" stop-color="#CCCCCC"/>
</linearGradient>
<linearGradient id="paint2_linear_2330_231" x1="14.5918" y1="1.41594" x2="31.6677" y2="2.17428" gradientUnits="userSpaceOnUse">
<stop stop-color="white"/>
<stop offset="1" stop-color="#CCCCCC"/>
</linearGradient>
<clipPath id="clip0_2330_231">
<rect width="31" height="31" fill="white"/>
</clipPath>
</defs>
</svg>
