<svg width="31" height="31" viewBox="0 0 31 31" fill="none" xmlns="http://www.w3.org/2000/svg">
<g clip-path="url(#clip0_2330_240)">
<path d="M15.5 0C6.9397 0 0 6.93958 0 15.5C0 24.0604 6.9397 31 15.5 31C24.0603 31 31 24.0604 31 15.5C31 6.93958 24.0603 0 15.5 0ZM20.8572 16.3216L13.1072 21.1654C12.9605 21.257 12.792 21.3076 12.6191 21.3121C12.4462 21.3166 12.2753 21.2748 12.124 21.1909C11.9728 21.1071 11.8468 20.9844 11.759 20.8354C11.6712 20.6864 11.625 20.5167 11.625 20.3438V10.6562C11.625 10.3039 11.8161 9.97982 12.124 9.80908C12.2752 9.72492 12.4462 9.6829 12.6191 9.68739C12.792 9.69189 12.9606 9.74274 13.1072 9.83463L20.8572 14.6784C21.1403 14.8558 21.3125 15.1661 21.3125 15.5C21.3125 15.8339 21.1403 16.1443 20.8572 16.3216Z" fill="url(#paint0_linear_2330_240)"/>
</g>
<defs>
<linearGradient id="paint0_linear_2330_240" x1="-1.07169e-08" y1="2.19022" x2="32.2303" y2="3.93846" gradientUnits="userSpaceOnUse">
<stop stop-color="white"/>
<stop offset="1" stop-color="#CCCCCC"/>
</linearGradient>
<clipPath id="clip0_2330_240">
<rect width="31" height="31" fill="white"/>
</clipPath>
</defs>
</svg>
