<svg width="31" height="31" viewBox="0 0 31 31" fill="none" xmlns="http://www.w3.org/2000/svg">
<path d="M28.5706 6.78631C28.3612 6.57685 28.1098 6.49306 27.8166 6.53495C27.5652 6.57685 22.0355 7.62414 18.4747 3.01603C17.3017 1.50793 15.8774 0.628196 14.1598 0.460629C11.5206 0.167386 9.049 1.67549 7.95981 2.47144V17.0079C8.21116 17.0079 8.42062 16.8823 8.58819 16.7147C8.63008 16.6728 11.2693 13.5309 16.7152 14.5363C27.0206 16.3795 28.7801 7.62414 28.822 7.54036C28.8639 7.24712 28.7801 6.99576 28.5706 6.78631Z" fill="url(#paint0_linear_2330_251)"/>
<path d="M13.6571 29.743C13.6571 30.2038 13.2801 30.5808 12.8193 30.5808H3.01656C2.55575 30.5808 2.17873 30.2038 2.17873 29.743C2.17873 29.2822 2.55575 28.9052 3.01656 28.9052H7.08008V1.75922C7.08008 1.29841 7.4571 0.921387 7.91792 0.921387C8.37873 0.921387 8.75575 1.29841 8.75575 1.75922V28.9052H12.8193C13.2801 28.9052 13.6571 29.2822 13.6571 29.743Z" fill="url(#paint1_linear_2330_251)"/>
<defs>
<linearGradient id="paint0_linear_2330_251" x1="7.95981" y1="1.59508" x2="29.6237" y2="3.074" gradientUnits="userSpaceOnUse">
<stop stop-color="white"/>
<stop offset="1" stop-color="#CCCCCC"/>
</linearGradient>
<linearGradient id="paint1_linear_2330_251" x1="2.17873" y1="3.01689" x2="14.1425" y2="3.26804" gradientUnits="userSpaceOnUse">
<stop stop-color="white"/>
<stop offset="1" stop-color="#CCCCCC"/>
</linearGradient>
</defs>
</svg>
