<svg width="197" height="36" viewBox="0 0 197 36" fill="none" xmlns="http://www.w3.org/2000/svg">
<path d="M71.6465 7.32017L69.5958 10.083H65.9383V17.9427H62.7704V10.083H57.9651L60.0158 7.32017H71.6465Z" fill="white"/>
<path d="M86.0957 17.9427H81.8566L79.5764 15.1323H74.7098V17.9427H71.542V12.5124H80.4487C80.9384 12.5124 81.3516 12.4065 81.6883 12.1948C82.025 11.9831 82.1933 11.692 82.1933 11.3215C82.1933 10.9087 82.0403 10.6017 81.7342 10.4006C81.4281 10.1888 80.9996 10.083 80.4487 10.083H71.542L73.608 7.32017H80.1885C80.7701 7.32017 81.372 7.37839 81.9944 7.49483C82.6167 7.60068 83.1829 7.79652 83.6931 8.08233C84.2032 8.36813 84.6215 8.75451 84.9479 9.24144C85.2846 9.72837 85.453 10.3529 85.453 11.1151C85.453 11.5279 85.3918 11.9196 85.2693 12.2901C85.1469 12.6606 84.9684 12.994 84.7337 13.2904C84.5093 13.5868 84.2287 13.8409 83.892 14.0526C83.5655 14.2537 83.1931 14.3966 82.7748 14.4813C82.9483 14.6189 83.1421 14.7935 83.3564 15.0053C83.5706 15.217 83.8563 15.5081 84.2134 15.8786L86.0957 17.9427Z" fill="white"/>
<path d="M91.5658 17.9427L93.4787 15.2117H96.0497C96.3558 15.2117 96.6721 15.2117 96.9986 15.2117C97.3352 15.2117 97.626 15.2223 97.8709 15.2434C97.728 15.0529 97.5597 14.8147 97.3659 14.5289C97.1822 14.2325 97.0037 13.9573 96.8302 13.7032L94.9938 10.8928L90.1885 17.9427H86.4391L93.0043 8.33638C93.2186 8.0294 93.4889 7.75418 93.8154 7.51071C94.1419 7.26724 94.5551 7.14551 95.055 7.14551C95.5345 7.14551 95.9324 7.26195 96.2487 7.49483C96.5752 7.71712 96.8506 7.99764 97.0751 8.33638L103.472 17.9427H91.5658Z" fill="white"/>
<path d="M116.079 7.32017L114.028 10.083H107.784V11.4644H115.497L113.569 14.0526H107.784V17.9427H104.601V7.32017H116.079Z" fill="white"/>
<path d="M128.632 7.32017L126.582 10.083H120.338V11.4644H128.051L126.123 14.0526H120.338V17.9427H117.155V7.32017H128.632Z" fill="white"/>
<path d="M132.922 17.9427H129.754V7.32017H132.922V17.9427Z" fill="white"/>
<path d="M147.918 15.2117L145.882 17.9427H140.74C139.853 17.9427 139.031 17.8051 138.276 17.5299C137.521 17.2547 136.868 16.8789 136.317 16.4025C135.777 15.9156 135.348 15.344 135.032 14.6877C134.726 14.0208 134.573 13.301 134.573 12.5282C134.573 11.7555 134.726 11.0516 135.032 10.4164C135.348 9.77072 135.777 9.22027 136.317 8.76509C136.868 8.29933 137.521 7.94471 138.276 7.70125C139.031 7.44719 139.853 7.32017 140.74 7.32017H147.918L145.882 10.083H140.74C140.312 10.083 139.914 10.1465 139.546 10.2735C139.179 10.4006 138.863 10.5805 138.598 10.8134C138.332 11.0357 138.123 11.3056 137.97 11.6232C137.817 11.9407 137.741 12.2901 137.741 12.6712C137.741 13.0522 137.812 13.4015 137.955 13.7191C138.108 14.0261 138.317 14.2907 138.582 14.513C138.858 14.7353 139.179 14.91 139.546 15.037C139.914 15.1535 140.312 15.2117 140.74 15.2117H147.918Z" fill="white"/>
<path d="M162.038 7.14551C164.527 7.14551 166.394 7.58481 167.639 8.46341C168.894 9.342 169.521 10.7287 169.521 12.6235C169.521 14.5289 168.899 15.9209 167.654 16.7995C166.409 17.6781 164.537 18.1174 162.038 18.1174C159.528 18.1174 157.651 17.6781 156.406 16.7995C155.171 15.9209 154.554 14.5289 154.554 12.6235C154.554 10.7287 155.177 9.342 156.421 8.46341C157.666 7.58481 159.538 7.14551 162.038 7.14551ZM162.038 15.3546C162.833 15.3546 163.507 15.3228 164.058 15.2593C164.609 15.1852 165.052 15.0476 165.389 14.8465C165.736 14.6454 165.986 14.3701 166.139 14.0208C166.292 13.6609 166.369 13.1951 166.369 12.6235C166.369 12.0519 166.292 11.5914 166.139 11.2421C165.986 10.8822 165.736 10.607 165.389 10.4164C165.052 10.2153 164.609 10.083 164.058 10.0195C163.507 9.94538 162.833 9.90833 162.038 9.90833C161.242 9.90833 160.568 9.94538 160.018 10.0195C159.467 10.083 159.018 10.2153 158.671 10.4164C158.334 10.607 158.089 10.8822 157.936 11.2421C157.783 11.5914 157.707 12.0519 157.707 12.6235C157.707 13.1951 157.783 13.6609 157.936 14.0208C158.089 14.3701 158.334 14.6454 158.671 14.8465C159.018 15.0476 159.467 15.1852 160.018 15.2593C160.568 15.3228 161.242 15.3546 162.038 15.3546Z" fill="white"/>
<path d="M181.496 18.1174C181.292 18.1174 181.088 18.0804 180.884 18.0063C180.691 17.9427 180.471 17.7892 180.226 17.5458L173.952 11.7026V17.9427H171.075V9.13029C171.075 8.78097 171.121 8.47928 171.213 8.22523C171.315 7.97118 171.442 7.76476 171.595 7.60598C171.758 7.4472 171.942 7.33075 172.146 7.25666C172.36 7.18256 172.58 7.14551 172.804 7.14551C172.998 7.14551 173.192 7.18256 173.386 7.25666C173.59 7.32017 173.819 7.47366 174.074 7.71713L180.349 13.5603V7.32017H183.241V16.1167C183.241 16.4661 183.19 16.7677 183.088 17.0218C182.996 17.2759 182.869 17.4876 182.705 17.6569C182.552 17.8157 182.369 17.9322 182.155 18.0063C181.94 18.0804 181.721 18.1174 181.496 18.1174Z" fill="white"/>
<path d="M197 15.2117L194.965 17.9427H185.109V7.32017H196.969L194.919 10.083H188.292V11.3533H196.403L194.582 13.7668H188.292V15.2117H197Z" fill="white"/>
<path d="M20.4677 11.7497H8.4627L0 23.4989H12.0052L20.4677 11.7497Z" fill="white"/>
<path d="M44.4777 11.7497H32.4727L24.01 23.4989H36.0152L44.4777 11.7497Z" fill="white"/>
<path d="M24.01 23.4989H12.0052L3.54246 35.248H15.5476L24.01 23.4989Z" fill="white"/>
<path d="M24.0098 0.000488281H36.0148L44.4777 11.7497H32.4724L24.0098 0.000488281Z" fill="white"/>
<path d="M58.0727 28.7657L60.1273 24.1876H60.6863L62.7409 28.7657H62.1741L60.3084 24.5036H60.5052L58.6316 28.7657H58.0727ZM58.9386 27.5827L59.104 27.1127H61.6388L61.8041 27.5827H58.9386Z" fill="white"/>
<path d="M65.9125 28.8143C65.4611 28.8143 65.0544 28.7144 64.6923 28.5145C64.3354 28.3093 64.052 28.0311 63.8421 27.6799C63.6374 27.3234 63.5351 26.921 63.5351 26.4726C63.5351 26.0243 63.6374 25.6245 63.8421 25.2734C64.052 24.9223 64.3354 24.6441 64.6923 24.4388C65.0544 24.2335 65.4611 24.1309 65.9125 24.1309C66.2693 24.1309 66.5895 24.1876 66.8729 24.301C67.1563 24.4145 67.4003 24.5846 67.605 24.8115L67.2429 25.1924C67.0644 25.0033 66.865 24.8655 66.6446 24.7791C66.4242 24.6873 66.1854 24.6414 65.9282 24.6414C65.5819 24.6414 65.2696 24.7224 64.9914 24.8844C64.7133 25.0411 64.4955 25.2572 64.3381 25.5327C64.1806 25.8082 64.1019 26.1215 64.1019 26.4726C64.1019 26.8237 64.1806 27.1398 64.3381 27.4207C64.4955 27.6961 64.7133 27.9122 64.9914 28.0689C65.2696 28.2255 65.5819 28.3039 65.9282 28.3039C66.1854 28.3039 66.4242 28.2606 66.6446 28.1742C66.865 28.0878 67.0644 27.9473 67.2429 27.7529L67.605 28.1337C67.4003 28.3606 67.1537 28.5307 66.865 28.6442C66.5816 28.7576 66.2641 28.8143 65.9125 28.8143Z" fill="white"/>
<path d="M68.2425 28.7657L70.2971 24.1876H70.8561L72.9107 28.7657H72.3439L70.4782 24.5036H70.675L68.8014 28.7657H68.2425ZM69.1084 27.5827L69.2738 27.1127H71.8086L71.9739 27.5827H69.1084Z" fill="white"/>
<path d="M74.2305 28.7657V24.1876H76.0962C76.6 24.1876 77.033 24.2848 77.3951 24.4793C77.7572 24.6684 78.0354 24.9358 78.2295 25.2815C78.429 25.6218 78.5287 26.0188 78.5287 26.4726C78.5287 26.9318 78.429 27.3342 78.2295 27.6799C78.0354 28.0203 77.7572 28.2877 77.3951 28.4821C77.033 28.6712 76.6 28.7657 76.0962 28.7657H74.2305ZM74.7973 28.2796H76.0726C76.4714 28.2796 76.8125 28.2039 77.0959 28.0527C77.3793 27.9014 77.5945 27.6907 77.7415 27.4207C77.8884 27.1506 77.9619 26.8345 77.9619 26.4726C77.9619 26.1107 77.8884 25.7947 77.7415 25.5246C77.5945 25.2545 77.3793 25.0465 77.0959 24.9007C76.8125 24.7494 76.4714 24.6738 76.0726 24.6738H74.7973V28.2796Z" fill="white"/>
<path d="M80.6795 26.2052H83.0726V26.6833H80.6795V26.2052ZM80.774 28.2796H83.4426V28.7657H80.2072V24.1876H83.3481V24.6738H80.774V28.2796Z" fill="white"/>
<path d="M85.1383 28.7657V24.1876H85.6264L87.6338 27.6637H87.4055L89.3971 24.1876H89.8852V28.7657H89.342V25.0789H89.4365L87.6417 28.1904H87.3819L85.5555 25.0789H85.6815V28.7657H85.1383Z" fill="white"/>
<path d="M93.0929 28.7657V27.056L93.2031 27.445L91.2508 24.1876H91.857L93.5338 26.9669H93.2346L94.9114 24.1876H95.4939L93.5495 27.445L93.6518 27.056V28.7657H93.0929Z" fill="white"/>
</svg>
