<svg width="28" height="31" viewBox="0 0 28 31" fill="none" xmlns="http://www.w3.org/2000/svg">
<g clip-path="url(#clip0_2_105)">
<g clip-path="url(#clip1_2_105)">
<g clip-path="url(#clip2_2_105)">
<mask id="mask0_2_105" style="mask-type:luminance" maskUnits="userSpaceOnUse" x="0" y="1" width="28" height="29">
<path d="M27.89 1.55493H0V29.4449H27.89V1.55493Z" fill="white"/>
</mask>
<g mask="url(#mask0_2_105)">
<path d="M12.0437 29.4376C5.74303 28.6499 0.793439 23.7003 0.0065721 17.4012C-0.0551002 16.9146 0.325122 16.4826 0.817411 16.4826H4.12059C4.5196 16.4826 4.85956 16.7708 4.92663 17.1634C5.56188 20.9255 8.51708 23.8815 12.2816 24.5175C12.6742 24.5845 12.9623 24.9246 12.9623 25.3236V28.6268C12.9622 29.1128 12.5409 29.4968 12.0437 29.4376ZM4.12086 14.6303H0.817683C0.325122 14.6303 -0.0547734 14.1982 0.0068445 13.7118C0.871946 6.78139 6.79358 1.55493 13.7797 1.55493C16.8834 1.55493 19.8259 2.56686 22.2894 4.48143C22.6813 4.78712 22.7106 5.36031 22.3661 5.70485L20.031 8.04077C19.7485 8.32407 19.3047 8.35921 18.9791 8.12853C17.446 7.03598 15.648 6.45821 13.7797 6.45821C9.38319 6.45821 5.65945 9.60894 4.92685 13.9496C4.85983 14.3422 4.51987 14.6303 4.12086 14.6303ZM14.8145 28.6275V25.3243C14.8145 24.9253 15.1027 24.5853 15.4953 24.5183C19.836 23.7857 22.9867 20.0619 22.9867 15.6654C22.9867 13.7972 22.4089 11.9991 21.3164 10.466C21.0849 10.1412 21.1216 9.6959 21.4041 9.41417L23.7401 7.07908C24.0802 6.73895 24.6552 6.76052 24.9635 7.15567C26.878 9.6193 27.89 12.5618 27.89 15.6654C27.89 22.6516 22.6635 28.5731 15.7331 29.4383C15.6181 29.4528 15.5014 29.4426 15.3906 29.4085C15.2799 29.3743 15.1776 29.317 15.0907 29.2403C15.0039 29.1636 14.9343 29.0693 14.8867 28.9636C14.8391 28.858 14.8144 28.7434 14.8145 28.6275Z" fill="url(#paint0_linear_2_105)"/>
<path d="M10.6736 12.2329C10.6736 11.7815 10.3077 11.4156 9.85643 11.4156H8.222C7.77068 11.4156 7.40479 11.7815 7.40479 12.2329V18.7706C7.40479 19.2219 7.77068 19.5878 8.222 19.5878H9.85643C10.3077 19.5878 10.6736 19.2219 10.6736 18.7706V12.2329ZM15.5769 18.7706V10.5985C15.5769 10.1471 15.211 9.78125 14.7597 9.78125H13.1252C12.674 9.78125 12.3081 10.1471 12.3081 10.5985V18.7706C12.3081 19.2219 12.674 19.5878 13.1252 19.5878H14.7597C15.211 19.5878 15.5769 19.2219 15.5769 18.7706ZM20.4802 18.7706V15.5017C20.4802 15.0504 20.1143 14.6845 19.663 14.6845H18.0286C17.5772 14.6845 17.2113 15.0504 17.2113 15.5017V18.7706C17.2113 19.2219 17.5772 19.5878 18.0286 19.5878H19.663C20.1144 19.5878 20.4802 19.2219 20.4802 18.7706Z" fill="url(#paint1_linear_2_105)"/>
</g>
</g>
</g>
</g>
<defs>
<linearGradient id="paint0_linear_2_105" x1="-3.25866e-08" y1="3.52541" x2="28.9968" y2="5.09827" gradientUnits="userSpaceOnUse">
<stop stop-color="white"/>
<stop offset="1" stop-color="#CCCCCC"/>
</linearGradient>
<linearGradient id="paint1_linear_2_105" x1="7.40479" y1="10.4741" x2="20.9682" y2="11.4551" gradientUnits="userSpaceOnUse">
<stop stop-color="white"/>
<stop offset="1" stop-color="#CCCCCC"/>
</linearGradient>
<clipPath id="clip0_2_105">
<rect width="27.89" height="31" fill="white"/>
</clipPath>
<clipPath id="clip1_2_105">
<rect width="27.89" height="31" fill="white"/>
</clipPath>
<clipPath id="clip2_2_105">
<rect width="27.89" height="27.89" fill="white" transform="translate(0 1.55493)"/>
</clipPath>
</defs>
</svg>
