<svg width="28" height="31" viewBox="0 0 28 31" fill="none" xmlns="http://www.w3.org/2000/svg">
<g clip-path="url(#clip0_2_132)">
<g clip-path="url(#clip1_2_132)">
<path fill-rule="evenodd" clip-rule="evenodd" d="M9.73415 22.3276L12.3246 25.6943C12.5598 25.9998 12.5185 26.4325 12.2329 26.6915L11.3421 27.5C11.1829 27.6443 10.9914 27.7086 10.7775 27.6892C10.5636 27.6699 10.3874 27.5719 10.2561 27.4019L7.38406 23.6843L9.73415 22.3276ZM23.9444 13.6872H26.5826C27.0046 13.6872 27.3461 13.3426 27.3452 12.9211C27.3443 12.4991 27.0003 12.1581 26.5788 12.1581H23.9405C23.5186 12.1581 23.177 12.5027 23.1779 12.9242C23.1787 13.3463 23.5229 13.6872 23.9444 13.6872ZM20.8128 6.74074L22.132 4.45594C22.3427 4.09092 22.2195 3.62245 21.8544 3.41066C21.4899 3.1992 21.0206 3.32258 20.8096 3.68804L19.4905 5.97283C19.2797 6.33786 19.403 6.80632 19.7681 7.01811C20.1325 7.22957 20.6017 7.10619 20.8128 6.74074ZM23.8652 9.47755L26.0312 8.22702C26.3989 8.01474 26.5248 7.5447 26.3126 7.17695C26.1003 6.80926 25.6302 6.68333 25.2625 6.89561L23.0965 8.14618C22.7288 8.35846 22.6029 8.82851 22.8152 9.19625C23.0275 9.5639 23.4975 9.68983 23.8652 9.47755ZM20.4586 12.9185L23.0134 17.3436C23.493 18.1743 23.2057 19.2465 22.375 19.7262C21.5997 20.1738 20.6143 19.9534 20.0963 19.2468C17.2684 18.8167 13.5846 19.2788 9.92164 20.7066L6.40023 14.6074C9.46946 12.1519 11.7184 9.20835 12.7599 6.54425C12.394 5.73871 12.6946 4.76354 13.4759 4.31245C14.3068 3.83277 15.3788 4.12011 15.8585 4.95087L18.4133 9.37591C18.487 9.31894 18.5645 9.267 18.6452 9.22044C19.6323 8.6505 20.8946 8.98871 21.4646 9.97592C22.0345 10.9631 21.6963 12.2255 20.7091 12.7954C20.6284 12.842 20.5448 12.8831 20.4586 12.9185ZM9.03618 21.3519L5.34629 14.9608L2.41289 16.6544C0.630435 17.6835 0.0141304 19.9838 1.04317 21.7663C2.07227 23.5487 4.3726 24.1651 6.15505 23.136L9.08845 21.4424L9.03618 21.3519Z" fill="white"/>
</g>
</g>
<defs>
<clipPath id="clip0_2_132">
<rect width="27.89" height="31" fill="white"/>
</clipPath>
<clipPath id="clip1_2_132">
<rect width="27.89" height="31" fill="white"/>
</clipPath>
</defs>
</svg>
