<svg width="28" height="31" viewBox="0 0 28 31" fill="none" xmlns="http://www.w3.org/2000/svg">
<g clip-path="url(#clip0_2_124)">
<g clip-path="url(#clip1_2_124)">
<path d="M11.9301 2.69403C11.8106 2.6449 11.6793 2.63216 11.5526 2.65745C11.4258 2.68272 11.3095 2.74487 11.218 2.83609L5.5598 8.49515C5.49905 8.55585 5.45087 8.62793 5.41799 8.70726C5.38512 8.7866 5.36819 8.87163 5.36819 8.95751C5.36819 9.04338 5.38512 9.12842 5.41799 9.20775C5.45087 9.28709 5.49905 9.35917 5.5598 9.41987L11.218 15.078C11.3094 15.1693 11.4258 15.2315 11.5526 15.2567C11.6793 15.2819 11.8106 15.2689 11.93 15.2195C12.0494 15.1701 12.1514 15.0864 12.2232 14.979C12.2951 14.8716 12.3335 14.7453 12.3336 14.6161V12.2315H13.2993C16.8936 12.2315 20.114 14.6388 21.132 18.0858C21.2148 18.3647 21.4719 18.5538 21.7595 18.5538L21.8066 18.5521C21.9553 18.5417 22.0958 18.4806 22.2049 18.3791C22.3141 18.2776 22.3851 18.1418 22.4062 17.9943C22.6297 16.4665 22.5213 14.9085 22.0886 13.4264C21.656 11.9443 20.909 10.5727 19.8987 9.40505C18.952 8.30986 17.7938 7.41711 16.4938 6.78031C15.1937 6.14351 13.7784 5.77578 12.3327 5.69917V3.29802C12.3332 3.16871 12.2953 3.04218 12.2236 2.9346C12.1518 2.82701 12.0496 2.74325 11.9301 2.69403Z" fill="url(#paint0_linear_2_124)"/>
<path d="M15.9601 28.3057C16.0795 28.3555 16.211 28.3686 16.3379 28.3433C16.4647 28.318 16.5811 28.2554 16.6722 28.1636L22.3303 22.5046C22.3912 22.4438 22.4393 22.3718 22.4722 22.2924C22.5051 22.2131 22.522 22.128 22.522 22.0421C22.522 21.9563 22.5051 21.8713 22.4722 21.7919C22.4393 21.7126 22.3912 21.6405 22.3303 21.5798L16.6722 15.9216C16.5808 15.8303 16.4644 15.7681 16.3376 15.7429C16.2109 15.7178 16.0796 15.7307 15.9602 15.7802C15.8408 15.8296 15.7388 15.9133 15.667 16.0207C15.5951 16.1281 15.5567 16.2543 15.5566 16.3835V18.7681H14.5901C10.9957 18.7681 7.77528 16.3608 6.7573 12.9138C6.71597 12.7704 6.62633 12.6456 6.50356 12.5606C6.38078 12.4757 6.23242 12.4357 6.08358 12.4476C5.93493 12.458 5.79435 12.519 5.68524 12.6205C5.57614 12.722 5.50509 12.8579 5.48395 13.0054C5.26053 14.5332 5.36886 16.0911 5.80155 17.5733C6.23424 19.0555 6.98115 20.427 7.99143 21.5946C8.93817 22.6898 10.0964 23.5826 11.3964 24.2193C12.6965 24.8561 14.1118 25.2239 15.5575 25.3005V27.7016C15.5569 27.8309 15.5949 27.9575 15.6666 28.0651C15.7384 28.1726 15.8405 28.2564 15.9601 28.3057Z" fill="url(#paint1_linear_2_124)"/>
</g>
</g>
<defs>
<linearGradient id="paint0_linear_2_124" x1="5.36819" y1="3.76878" x2="23.1915" y2="4.81104" gradientUnits="userSpaceOnUse">
<stop stop-color="white"/>
<stop offset="1" stop-color="#CCCCCC"/>
</linearGradient>
<linearGradient id="paint1_linear_2_124" x1="5.37082" y1="13.5696" x2="23.1941" y2="14.6118" gradientUnits="userSpaceOnUse">
<stop stop-color="white"/>
<stop offset="1" stop-color="#CCCCCC"/>
</linearGradient>
<clipPath id="clip0_2_124">
<rect width="27.89" height="31" fill="white"/>
</clipPath>
<clipPath id="clip1_2_124">
<rect width="27.89" height="31" fill="white"/>
</clipPath>
</defs>
</svg>
