<svg width="28" height="31" viewBox="0 0 28 31" fill="none" xmlns="http://www.w3.org/2000/svg">
<g clip-path="url(#clip0_2_117)">
<g clip-path="url(#clip1_2_117)">
<g clip-path="url(#clip2_2_117)">
<path d="M20.0179 8.79739C19.9256 8.64464 19.7858 8.52633 19.6199 8.46051C19.454 8.3947 19.2711 8.385 19.0992 8.43291C18.9272 8.48086 18.7758 8.58375 18.6679 8.72587C18.5599 8.868 18.5015 9.04153 18.5014 9.21999C18.5014 10.2173 17.6901 11.0284 16.693 11.0284C15.6959 11.0284 14.8845 10.2173 14.8845 9.21999V2.37197C14.8845 2.21037 14.8366 2.05242 14.7468 1.91807C14.657 1.78373 14.5293 1.67904 14.38 1.61725C14.2308 1.55532 14.0665 1.53909 13.908 1.57061C13.7496 1.60212 13.604 1.67997 13.4898 1.79429C13.3978 1.88596 11.2192 4.07766 9.0117 7.38878C7.70992 9.34124 6.67113 11.278 5.9242 13.1452C4.97829 15.5107 4.49838 17.7751 4.49838 19.876C4.49838 25.1522 8.79109 29.4448 14.0674 29.4448C19.3437 29.4448 23.6363 25.1521 23.6363 19.876C23.6366 16.4985 22.419 12.7711 20.0179 8.79739ZM19.5197 19.6634C19.5197 20.1147 19.1539 20.4805 18.7026 20.4805C18.2515 20.4805 17.8854 20.1147 17.8854 19.6634V18.1354L13.817 22.204C13.6637 22.3572 13.4558 22.4432 13.2392 22.4432C13.0225 22.4432 12.8146 22.3572 12.6613 22.204L10.7638 20.3062L9.48493 21.585C9.16573 21.9043 8.64849 21.9043 8.32933 21.585C8.01012 21.2658 8.01012 20.7486 8.32933 20.4294L10.1861 18.5729C10.5053 18.2539 11.0226 18.2539 11.3417 18.5731L13.2391 20.4706L16.73 16.9797H15.2018C14.7505 16.9797 14.3848 16.614 14.3848 16.1626C14.3848 15.7114 14.7505 15.3455 15.2018 15.3455H18.7028C19.1539 15.3455 19.5198 15.7116 19.5198 16.1626L19.5197 19.6634Z" fill="url(#paint0_linear_2_117)"/>
</g>
</g>
</g>
<defs>
<linearGradient id="paint0_linear_2_117" x1="4.49838" y1="3.52541" x2="24.4268" y2="4.26716" gradientUnits="userSpaceOnUse">
<stop stop-color="white"/>
<stop offset="1" stop-color="#CCCCCC"/>
</linearGradient>
<clipPath id="clip0_2_117">
<rect width="27.89" height="31" fill="white"/>
</clipPath>
<clipPath id="clip1_2_117">
<rect width="27.89" height="31" fill="white"/>
</clipPath>
<clipPath id="clip2_2_117">
<rect width="27.89" height="27.89" fill="white" transform="translate(0 1.55493)"/>
</clipPath>
</defs>
</svg>
